
<svg version="1.1" xmlns="http://www.w3.org/2000/svg" width="500" height="500" viewBox="0 0 500 500" preserveAspectRatio="xMidYMid meet">
<path d="M0 0 C2.29795357 -0.00135727 4.59590692 -0.00313903 6.89385986 -0.00531006 C13.1006585 -0.00984663 19.3074404 -0.00811015 25.51423931 -0.00493097 C32.03474152 -0.00238658 38.55524236 -0.0047508 45.07574463 -0.00631714 C56.72720961 -0.00844873 68.3786676 -0.0051543 80.03013137 -0.0000578 C90.55785174 0.00440496 101.08556108 0.00363647 111.61328125 -0.00097656 C123.88093648 -0.00634959 136.14858468 -0.00830838 148.41624093 -0.0053643 C154.89441712 -0.00381307 161.37258573 -0.0035758 167.85076141 -0.00690079 C173.94773354 -0.0098118 180.04468505 -0.00774505 186.14165497 -0.00200653 C188.36588507 -0.0006959 190.59011694 -0.00104379 192.81434631 -0.0032692 C202.92613804 -0.01244529 213.01778769 0.02828806 223.11724854 0.57107544 C223.83453998 0.60928748 224.55183143 0.64749952 225.29085898 0.6868695 C241.06347196 1.65404669 255.24973777 8.56621663 267.64941406 18.15283203 C280.11760104 28.49529533 288.13815865 41.69455583 292.96191406 57.09814453 C294.60222667 63.28446638 295.29757542 69.35256088 295.6022644 75.71768188 C295.66376358 76.95503112 295.66376358 76.95503112 295.72650516 78.21737731 C296.17341478 88.0279713 296.17254966 97.83556206 296.16162109 107.65429688 C296.16298024 109.73809845 296.16476304 111.82189979 296.16693115 113.90570068 C296.17144728 119.50965587 296.16973937 125.11359242 296.16655207 130.71754789 C296.16399474 136.62962101 296.16637561 142.54169268 296.16793823 148.45376587 C296.16975159 158.38747438 296.16737705 168.32117544 296.16259766 178.25488281 C296.15717168 189.66260008 296.15890895 201.07029943 296.16442406 212.47801626 C296.16899707 222.33949445 296.16958501 232.20096732 296.16698539 242.06244624 C296.16544352 247.92218164 296.16517004 253.78190869 296.16852188 259.64164352 C296.18892569 301.4067428 296.18892569 301.4067428 295.63330078 319.15136719 C295.60086336 320.26993795 295.56842594 321.38850872 295.53500557 322.54097557 C295.20692979 331.16585583 293.89361844 338.97056093 291.03222656 347.12939453 C290.67128906 348.19673828 290.31035156 349.26408203 289.93847656 350.36376953 C284.82756797 363.96983699 274.73758625 375.55227886 263.20410156 384.26611328 C248.38821202 394.02343482 233.07760708 398.2854838 215.48997498 398.26983643 C214.44031541 398.27280755 213.39065585 398.27577867 212.30918843 398.27883983 C208.7981585 398.28749905 205.28716279 398.28903273 201.77612305 398.29052734 C199.25596545 398.29515752 196.73580855 398.30018245 194.21565247 398.30557251 C187.37236974 398.31868015 180.52909822 398.32517556 173.68580508 398.32958317 C169.40729127 398.33235148 165.1287797 398.33658992 160.85026741 398.34108734 C148.98871598 398.35327629 137.12716634 398.36357596 125.26560879 398.36696243 C124.5072328 398.367182 123.74885681 398.36740157 122.96749974 398.36762778 C122.20737629 398.36784606 121.44725284 398.36806434 120.66409534 398.36828923 C119.12396395 398.36873269 117.58383256 398.36917925 116.04370117 398.36962891 C114.89777954 398.36996105 114.89777954 398.36996105 113.72870798 398.37029991 C101.361652 398.3742444 88.99465507 398.39168944 76.62762188 398.41498843 C63.91017078 398.43875283 51.19274923 398.45116661 38.47527558 398.45233035 C31.34316385 398.45324432 24.21112905 398.45892604 17.07903862 398.47714996 C10.36572796 398.49424415 3.65258761 398.49576571 -3.06074715 398.48701096 C-5.51725149 398.48624281 -7.9737638 398.4905538 -10.43024826 398.50046921 C-32.70729916 398.5850759 -51.01183069 395.86099787 -69.96777344 383.12939453 C-82.60748758 373.49648463 -92.07552725 359.99215958 -97.03027344 344.89111328 C-99.53458004 335.41568396 -100.11692563 326.07945906 -100.10821533 316.31539917 C-100.11118645 315.26065277 -100.11415758 314.20590637 -100.11721873 313.11919796 C-100.12585495 309.60289464 -100.12740966 306.08662557 -100.12890625 302.5703125 C-100.133538 300.04163033 -100.13856314 297.51294886 -100.14395142 294.98426819 C-100.15704257 288.1265744 -100.16355127 281.26889179 -100.16796207 274.41118765 C-100.17073295 270.12226966 -100.17497178 265.83335389 -100.17946625 261.54443741 C-100.19165169 249.64935129 -100.20195276 237.75426695 -100.20534134 225.85917473 C-100.20556091 225.09915293 -100.20578047 224.33913114 -100.20600669 223.55607838 C-100.20622497 222.79433164 -100.20644325 222.0325849 -100.20666814 221.24775493 C-100.20711159 219.70439521 -100.20755815 218.1610355 -100.20800781 216.61767578 C-100.20822924 215.85213073 -100.20845067 215.08658567 -100.20867881 214.29784228 C-100.21262408 201.90248972 -100.23007309 189.50719605 -100.25336733 177.11186622 C-100.27713778 164.35931659 -100.28954576 151.60679645 -100.29070926 138.85422432 C-100.29162277 131.70478421 -100.29729305 124.55542088 -100.31552887 117.40600204 C-100.33263286 110.67706715 -100.33414017 103.94830216 -100.32538986 97.21934319 C-100.32462225 94.75841952 -100.3289256 92.29748787 -100.33884811 89.83658409 C-100.45749462 58.56110957 -100.45749462 58.56110957 -93.28027344 44.31689453 C-92.76243286 43.25390137 -92.76243286 43.25390137 -92.23413086 42.16943359 C-89.21576523 36.18871183 -85.53888808 31.03764127 -80.96777344 26.12939453 C-80.14277344 25.24251953 -79.31777344 24.35564453 -78.46777344 23.44189453 C-77.23027344 22.29720703 -77.23027344 22.29720703 -75.96777344 21.12939453 C-75.443125 20.61119141 -74.91847656 20.09298828 -74.37792969 19.55908203 C-64.0576801 9.8279376 -50.86281333 3.65521734 -36.96777344 1.12939453 C-24.69737821 -0.26548858 -12.32797235 -0.01228531 0 0 Z " fill="#F4F3EF" transform="translate(148.9677734375,52.87060546875)" />
<path d="M0 0 C0.91417694 -0.0065712 1.82835388 -0.0131424 2.77023315 -0.01991272 C5.79970379 -0.03964424 8.82912483 -0.05130895 11.85864258 -0.0612793 C12.89399958 -0.06535482 13.92935658 -0.06943035 14.99608803 -0.07362938 C20.47769598 -0.09449099 25.9592789 -0.10879148 31.44091797 -0.11816406 C37.09568109 -0.12921962 42.75004974 -0.16360965 48.40467358 -0.20333576 C52.75851662 -0.22951619 57.11226596 -0.23785726 61.4661808 -0.24144554 C63.55011975 -0.24630896 65.63405458 -0.25791592 67.71791649 -0.27648354 C70.64038447 -0.30090154 73.56183566 -0.29990478 76.484375 -0.29296875 C77.33921982 -0.30577881 78.19406464 -0.31858887 79.07481384 -0.33178711 C84.85754512 -0.28196837 89.22933635 0.93545871 94.06567383 4.17700195 C96.68671398 6.93599159 98.64431646 9.65367069 100.06567383 13.17700195 C100.30618286 16.23956299 100.30618286 16.23956299 100.29272461 19.87329102 C100.29301666 20.53711792 100.29330872 21.20094482 100.29360962 21.8848877 C100.29222041 24.07093547 100.27667886 26.256639 100.26098633 28.44262695 C100.25725474 29.96148492 100.25440845 31.4803453 100.25241089 32.99920654 C100.24478592 36.99083132 100.22514727 40.98230984 100.20300293 44.97387695 C100.18251997 49.04937766 100.17340394 53.12490207 100.16333008 57.20043945 C100.14190024 65.19269396 100.10777809 73.18482975 100.06567383 81.17700195 C101.31689026 81.16367828 101.31689026 81.16367828 102.59338379 81.15008545 C110.47868786 81.0697272 118.36385315 81.00893008 126.24947357 80.96975327 C130.30296894 80.94893442 134.35612417 80.92072238 138.40942383 80.87524414 C142.32574273 80.83158098 146.24173577 80.80782201 150.15827942 80.79749298 C151.64774195 80.7901381 153.13718792 80.77577597 154.62651062 80.75408173 C162.6481007 80.64194918 169.21723274 80.55775142 176.06567383 85.17700195 C179.45343487 88.35658347 181.63467847 91.75640504 183.06567383 96.17700195 C183.30618286 99.28388977 183.30618286 99.28388977 183.29272461 102.80322266 C183.29301666 103.44768845 183.29330872 104.09215424 183.29360962 104.75614929 C183.29222387 106.87183417 183.27669889 108.98716037 183.26098633 111.1027832 C183.2572535 112.57537137 183.2544078 114.04796204 183.25241089 115.52055359 C183.24479565 119.38557868 183.22516546 123.25045208 183.20300293 127.11541748 C183.18249891 131.06365914 183.17339945 135.01192545 183.16333008 138.96020508 C183.14191743 146.69920632 183.10780716 154.43808284 183.06567383 162.17700195 C183.86667511 162.17256073 184.66767639 162.16811951 185.49295044 162.1635437 C193.05517252 162.12340857 200.61734269 162.09298791 208.17964363 162.07337761 C212.06715579 162.06295673 215.95457966 162.04882863 219.84204102 162.02612305 C223.59622944 162.00433401 227.35033313 161.99242058 231.10457993 161.98724747 C232.53425301 161.98356257 233.96392165 161.9763669 235.3935585 161.96554184 C237.40156756 161.95094714 239.40966253 161.95018435 241.41772461 161.94995117 C242.55911896 161.94550995 243.70051331 161.94106873 244.87649536 161.93649292 C250.85956751 162.38770094 255.36717316 164.49991448 260.06567383 168.17700195 C263.35923524 172.53874545 265.00361081 175.54266302 265.21284485 181.05253601 C265.22796496 182.70816191 265.23747253 184.36384449 265.24267578 186.01953125 C265.24924698 186.92395462 265.25581818 187.82837799 265.2625885 188.76020813 C265.2823192 191.75721316 265.29398457 194.75416805 265.30395508 197.7512207 C265.30803061 198.77554514 265.31210613 199.79986958 265.31630516 200.85523415 C265.33716647 206.27848738 265.35146707 211.70171532 265.36083984 217.125 C265.37189503 222.7192309 265.40628472 228.31306303 265.44601154 233.90715313 C265.47219357 238.21467311 265.48053318 242.52209838 265.48412132 246.82969093 C265.48898437 248.89130148 265.50059027 250.95290788 265.51915932 253.01444054 C265.54358067 255.90577882 265.54257998 258.79608955 265.53564453 261.6875 C265.55485962 262.95574112 265.55485962 262.95574112 265.57446289 264.24960327 C265.52391436 270.05579313 264.19611487 274.27279883 261.06567383 279.17700195 C259.28442383 281.2355957 259.28442383 281.2355957 257.56567383 282.61450195 C256.99848633 283.08758789 256.43129883 283.56067383 255.84692383 284.0480957 C251.01868268 287.10809941 245.08262552 286.56485919 239.55786133 286.5246582 C235.39121322 286.10985766 232.91186705 285.10861475 229.61254883 282.59887695 C225.50133655 278.81988385 223.56811009 275.53618531 222.06567383 270.17700195 C221.82516479 266.98782349 221.82516479 266.98782349 221.83862305 263.52905273 C221.83884964 261.5777092 221.83884964 261.5777092 221.83908081 259.58694458 C221.84929181 258.18206629 221.85972376 256.77718958 221.87036133 255.37231445 C221.87409537 253.9235758 221.87694049 252.47483462 221.87893677 251.02609253 C221.88654247 247.22848435 221.90616431 243.43103118 221.92834473 239.63348389 C221.95248338 235.06876834 221.96159874 230.50400072 221.97325134 225.9392395 C221.99259079 219.01838612 222.03093438 212.0978723 222.06567383 205.17700195 C209.19567383 205.17700195 196.32567383 205.17700195 183.06567383 205.17700195 C183.15268555 212.14954102 183.15268555 212.14954102 183.24145508 219.26293945 C183.26703274 222.22521439 183.29110407 225.18735129 183.30981445 228.1496582 C183.33959047 232.84151838 183.3746381 237.53288614 183.44287109 242.22436523 C183.49759368 246.01103702 183.52717781 249.79718008 183.54006004 253.58421707 C183.54922851 255.02181943 183.56713104 256.45939608 183.59432411 257.89677048 C183.73728592 265.77383256 183.36081047 272.26463858 179.43522644 279.28726196 C176.3142402 283.5936701 171.93419052 285.45318641 167.06567383 287.17700195 C161.20569567 288.0321447 156.09908634 287.57213634 150.69067383 285.11450195 C146.03819119 282.5182835 143.70426031 279.77324938 141.06567383 275.17700195 C139.98574142 271.93720471 139.94253353 269.6056946 139.94541931 266.19758606 C139.94335732 264.32345787 139.94335732 264.32345787 139.94125366 262.41146851 C139.9447928 261.02447486 139.94842761 259.63748145 139.95214844 258.25048828 C139.95243047 256.79193626 139.95227226 255.33338409 139.95170593 253.87483215 C139.95141858 249.91231386 139.9573053 245.94982573 139.96427989 241.98731446 C139.97052375 237.84731336 139.97111805 233.7073116 139.9723053 229.56730652 C139.97541556 221.72630458 139.98362486 213.88531656 139.99365479 206.04432076 C140.00482537 197.11818352 140.01032876 188.19204561 140.01535022 179.26590312 C140.02580771 160.90292657 140.04414942 142.53996909 140.06567383 124.17700195 C126.86567383 124.17700195 113.66567383 124.17700195 100.06567383 124.17700195 C100.09709473 130.83919922 100.09709473 130.83919922 100.12915039 137.63598633 C100.19542043 152.3082574 100.2398132 166.98053435 100.27292252 181.65291595 C100.29353165 190.54904316 100.32162064 199.44502839 100.36743164 208.34106445 C100.40734999 216.09651616 100.43311863 223.85186503 100.44202781 231.60741663 C100.44723412 235.71246226 100.45943621 239.81721373 100.48859406 243.92216492 C100.51584235 247.78979461 100.52409998 251.6570103 100.51810455 255.52472687 C100.5192006 256.94043989 100.52709861 258.35616746 100.54249573 259.77179718 C100.62413167 267.66805924 100.46365644 273.48426239 96.06567383 280.17700195 C93.48977107 283.0011237 90.73225383 284.86593128 87.25317383 286.48950195 C81.61275182 287.70606356 76.89744411 287.76689408 71.37817383 285.98950195 C66.82252365 283.4967877 63.24642301 281.0202732 60.41634655 276.60223198 C58.66543072 272.16200794 58.6580345 268.41352191 58.70491028 263.68582153 C58.702347 262.73739439 58.69978373 261.78896724 58.69714278 260.81179988 C58.69220652 257.63795009 58.7086955 254.46457736 58.72509766 251.29077148 C58.72594396 249.01405346 58.72546872 246.73733461 58.72377014 244.46061707 C58.7229089 238.28134569 58.74055573 232.10224878 58.76149201 225.92301798 C58.78023721 219.46479074 58.78200756 213.00655957 58.78556824 206.54830933 C58.79383515 195.70901101 58.81257776 184.86978429 58.83935547 174.03051758 C58.86690442 162.86743489 58.8881339 151.7043696 58.90087891 140.54125977 C58.90166708 139.85284013 58.90245525 139.16442049 58.9032673 138.45513965 C58.90718249 135.00144311 58.9109736 131.54774644 58.91470301 128.09404969 C58.94578885 99.45498919 58.99944312 70.81600125 59.06567383 42.17700195 C45.86567383 42.17700195 32.66567383 42.17700195 19.06567383 42.17700195 C19.07233566 45.03038712 19.0789975 47.88377228 19.08586121 50.82362366 C19.14557038 76.99549481 19.19035082 103.16736051 19.21886982 129.33928454 C19.22262189 132.77013514 19.22650486 136.20098558 19.23046875 139.63183594 C19.23125568 140.31485055 19.23204261 140.99786516 19.23285339 141.70157718 C19.24590391 152.7578666 19.26955579 163.81410917 19.29713222 174.87037081 C19.32519629 186.21685839 19.34162768 197.56331127 19.34793931 208.90983576 C19.35185247 215.28227899 19.36105849 221.65461601 19.382864 228.02702522 C19.40322032 234.02449561 19.40950929 240.02181598 19.40499687 246.01931763 C19.40582245 248.22075147 19.41179307 250.42219031 19.42329025 252.62359428 C19.43822073 255.6297454 19.43462514 258.63533048 19.42643738 261.64149475 C19.4351759 262.51213202 19.44391443 263.38276929 19.45291775 264.27978951 C19.41323584 269.67179422 18.59067487 273.38862696 16.06567383 278.17700195 C12.82782649 282.027415 9.84204456 284.5564476 5.06567383 286.17700195 C-0.54484938 286.70547704 -6.48944192 287.04879629 -11.87182617 285.11450195 C-16.35098025 282.28075141 -19.48641541 278.87122741 -21.99604893 274.20138264 C-23.37340631 269.76170013 -23.21987476 265.49608411 -23.20848083 260.87284851 C-23.21371751 259.82474796 -23.21895419 258.7766474 -23.22434956 257.69678622 C-23.23936988 254.17932946 -23.24005516 250.6620179 -23.24072266 247.14453125 C-23.24834274 244.62478387 -23.25676997 242.10503882 -23.26594543 239.58529663 C-23.2879116 232.73609377 -23.29671391 225.88694132 -23.30177188 219.03770804 C-23.30503079 214.7595834 -23.31155441 210.48146773 -23.31877327 206.20334816 C-23.33833611 194.35387684 -23.35474239 182.50441386 -23.3576498 170.65492535 C-23.35783737 169.89693736 -23.35802494 169.13894937 -23.3582182 168.35799204 C-23.35858444 166.821432 -23.35894814 165.28487195 -23.35930931 163.7483119 C-23.35949212 162.98558284 -23.35967493 162.22285378 -23.35986328 161.43701172 C-23.36004383 160.67334971 -23.36022438 159.90968771 -23.3604104 159.12288443 C-23.36395219 146.74836381 -23.39097618 134.37401719 -23.42836117 121.99955692 C-23.4664538 109.28897119 -23.48580735 96.57847179 -23.48610932 83.86782771 C-23.48669364 76.73358753 -23.49516956 69.59955497 -23.52410698 62.46536827 C-23.55119943 55.7552938 -23.55251769 49.04569975 -23.53645134 42.33556747 C-23.5346333 39.87331433 -23.54135932 37.41103778 -23.55727005 34.94883537 C-23.5776746 31.58610381 -23.56721004 28.22481917 -23.54905701 24.86210632 C-23.56225697 23.88884594 -23.57545694 22.91558556 -23.58905691 21.91283244 C-23.51888324 16.21749013 -22.56126463 12.54806653 -19.31164032 7.83821899 C-13.7142973 1.08710736 -8.51971662 0.02648509 0 0 Z " fill="#000000" transform="translate(128.934326171875,108.822998046875)" />
<path d="M0 0 C4.68205852 1.47616158 7.37728931 3.96120996 10.41796875 7.7578125 C12.62597624 11.0276325 13.89320636 13.59235904 13.90522766 17.57673645 C13.91231247 18.36304947 13.91939728 19.14936249 13.92669678 19.95950317 C13.92421936 20.81309418 13.92174194 21.66668518 13.91918945 22.54614258 C13.92430038 23.45231827 13.92941132 24.35849396 13.93467712 25.29212952 C13.94857974 28.28857017 13.94761553 31.28478092 13.9453125 34.28125 C13.94919968 36.36626776 13.9535344 38.45128472 13.95829773 40.53630066 C13.96576184 44.9084225 13.96546772 49.28046359 13.96020508 53.65258789 C13.95441687 59.2479586 13.97132497 64.8429976 13.99454975 70.43831348 C14.00930361 74.74580306 14.01015641 79.05321312 14.00704002 83.3607235 C14.00755262 85.42313989 14.01277881 87.4855608 14.02285194 89.54795265 C14.03522789 92.43688922 14.02841705 95.32518454 14.0168457 98.21411133 C14.02831131 99.48538879 14.02831131 99.48538879 14.04000854 100.78234863 C13.97952608 107.63545085 12.32457836 112.07814877 8.45703125 117.82421875 C5.00741987 121.1971721 2.34944106 122.63633722 -2.35546875 123.57421875 C-8.07393676 124.19763182 -13.46962801 124.35428196 -18.79296875 121.94921875 C-23.21706295 119.34626935 -26.07618728 116.012559 -28.47012329 111.44966125 C-29.70464444 107.44015902 -29.6504542 103.6777252 -29.64599609 99.50463867 C-29.65271332 98.59992325 -29.65943054 97.69520782 -29.66635132 96.76307678 C-29.68532428 93.7768909 -29.68925527 90.79092989 -29.69140625 87.8046875 C-29.69783502 85.72349455 -29.70456344 83.64230251 -29.71157837 81.56111145 C-29.72354964 77.19916693 -29.72725938 72.83730159 -29.72607422 68.4753418 C-29.72587112 62.89683203 -29.75316447 57.31883223 -29.78761864 51.74044323 C-29.80990054 47.44148953 -29.81391135 43.14265826 -29.81285477 38.84365273 C-29.81520911 36.78763383 -29.82402321 34.73161148 -29.8395195 32.67564964 C-29.85920382 29.79406834 -29.85333154 26.91358289 -29.84130859 24.03198242 C-29.85254761 23.18963043 -29.86378662 22.34727844 -29.87536621 21.47940063 C-29.814478 15.71135776 -28.52224886 11.42489757 -25.35546875 6.57421875 C-23.3203125 4.515625 -23.3203125 4.515625 -21.29296875 3.13671875 C-20.62136719 2.66363281 -19.94976562 2.19054687 -19.2578125 1.703125 C-13.6117034 -1.64744077 -6.28353146 -1.13582907 0 0 Z " fill="#020202" transform="translate(380.35546875,109.42578125)" />
<path d="M0 0 C4.64729986 1.4680424 7.33449491 3.99069179 10.3515625 7.7578125 C13.82210622 12.89731196 14.0611352 17.00198075 13.95703125 23.171875 C13.37844795 28.36719512 11.66258999 32.37254597 8.578125 36.57421875 C4.28833709 40.22510207 -0.14423212 42.26439181 -5.77734375 42.796875 C-11.36989346 42.99147204 -15.44038662 42.3523565 -20.421875 39.57421875 C-24.94593222 36.35517804 -27.31745719 33.69274508 -29.421875 28.57421875 C-30.15654321 22.43874642 -30.79743755 15.15989072 -27.859375 9.51171875 C-19.96719043 0.00062452 -12.34381852 -2.17012293 0 0 Z " fill="#030303" transform="translate(298.421875,109.42578125)" />
<path d="M0 0 C0.66 0 1.32 0 2 0 C0.38989473 4.07376031 -2.53822271 6.76507069 -5.625 9.75 C-6.140625 10.25660156 -6.65625 10.76320313 -7.1875 11.28515625 C-8.45383339 12.52803902 -9.7263144 13.76465276 -11 15 C-11.33 14.34 -11.66 13.68 -12 13 C-4.94975689 4.63371151 -4.94975689 4.63371151 -2 2 C-1.34 2 -0.68 2 0 2 C0 1.34 0 0.68 0 0 Z " fill="#EAE8E6" transform="translate(427,419)" />
<path d="M0 0 C0.33 0.99 0.66 1.98 1 3 C0.34 3.66 -0.32 4.32 -1 5 C-1.71408334 6.98356483 -2.38617742 8.98315437 -3 11 C-3.66 11 -4.32 11 -5 11 C-5.33 11.99 -5.66 12.98 -6 14 C-6.33 13.34 -6.66 12.68 -7 12 C-6.02296079 10.1863523 -5.04330895 8.37411183 -4.0625 6.5625 C-3.51722656 5.55316406 -2.97195312 4.54382813 -2.41015625 3.50390625 C-1 1 -1 1 0 0 Z " fill="#EAE6E5" transform="translate(62,87)" />
<path d="M0 0 C0.66 0.33 1.32 0.66 2 1 C0.35 3.31 -1.3 5.62 -3 8 C-5 6 -5 6 -6 3 C-4.03533587 1.93224776 -2.03144641 0.93446535 0 0 Z " fill="#DFDEDC" transform="translate(304,391)" />
<path d="M0 0 C3.465 1.485 3.465 1.485 7 3 C6.01 3.99 5.02 4.98 4 6 C3.01 5.67 2.02 5.34 1 5 C0.67 3.35 0.34 1.7 0 0 Z " fill="#E4E3E0" transform="translate(275,391)" />
<path d="M0 0 C0.66 0.66 1.32 1.32 2 2 C1.75 3.875 1.75 3.875 1 6 C-0.9375 7.1875 -0.9375 7.1875 -3 8 C-3.99 8.495 -3.99 8.495 -5 9 C-3.50163895 5.88801935 -1.80066242 2.9465385 0 0 Z " fill="#E5E4E1" transform="translate(227,384)" />
<path d="M0 0 C1.32 1.32 2.64 2.64 4 4 C0.535 5.485 0.535 5.485 -3 7 C-2.38722388 4.03824877 -1.74627478 2.61941217 0 0 Z " fill="#ECEBE9" transform="translate(116,106)" />
<path d="M0 0 C0.99 0.495 0.99 0.495 2 1 C2 1.66 2 2.32 2 3 C2.66 3 3.32 3 4 3 C4.33 4.98 4.66 6.96 5 9 C2.48503749 6.80954878 1.1396946 5.51221354 0.25 2.25 C0.1675 1.5075 0.085 0.765 0 0 Z " fill="#E9E8E7" transform="translate(57,407)" />
</svg>
