<svg xmlns="http://www.w3.org/2000/svg" width="480" height="480" viewBox="0 0 480 480">
  <defs>
    <filter id="jitter" color-interpolation-filters="sRGB">
      <feTurbulence
        type="fractalNoise"
        baseFrequency="0.022 0.62"
        numOctaves="2"
        seed="8"
        result="noise"
      />
      <feDisplacementMap
        in="SourceGraphic"
        in2="noise"
        scale="5"
        xChannelSelector="R"
        yChannelSelector="R"
      />
    </filter>

    <pattern id="scan" width="480" height="480" patternUnits="userSpaceOnUse">
      <g fill="#1c1917" opacity="0.5">
        <rect y="6" width="352" height="0.9" />
        <rect y="16" width="418" height="0.75" />
        <rect y="26" width="298" height="1" />
        <rect y="36" width="392" height="0.8" />
        <rect y="46" width="334" height="0.85" />
        <rect y="56" width="445" height="0.7" />
        <rect y="66" width="276" height="0.95" />
        <rect y="76" width="368" height="0.75" />
        <rect y="86" width="404" height="0.85" />
        <rect y="96" width="312" height="0.8" />
        <rect y="106" width="428" height="0.7" />
        <rect y="116" width="288" height="1" />
        <rect y="126" width="376" height="0.8" />
        <rect y="136" width="342" height="0.9" />
        <rect y="146" width="462" height="0.65" />
        <rect y="156" width="304" height="0.85" />
        <rect y="166" width="388" height="0.75" />
        <rect y="176" width="326" height="0.95" />
        <rect y="186" width="436" height="0.7" />
        <rect y="196" width="268" height="0.9" />
        <rect y="206" width="398" height="0.8" />
        <rect y="216" width="348" height="0.75" />
        <rect y="226" width="452" height="0.85" />
        <rect y="236" width="294" height="0.7" />
        <rect y="246" width="364" height="1" />
        <rect y="256" width="414" height="0.75" />
        <rect y="266" width="318" height="0.85" />
        <rect y="276" width="382" height="0.8" />
        <rect y="286" width="448" height="0.7" />
        <rect y="296" width="282" height="0.95" />
        <rect y="306" width="356" height="0.8" />
        <rect y="316" width="424" height="0.75" />
        <rect y="326" width="308" height="0.9" />
        <rect y="336" width="372" height="0.85" />
        <rect y="346" width="458" height="0.65" />
        <rect y="356" width="292" height="0.9" />
        <rect y="366" width="336" height="0.8" />
        <rect y="376" width="402" height="0.75" />
        <rect y="386" width="274" height="1" />
        <rect y="396" width="386" height="0.8" />
        <rect y="406" width="432" height="0.7" />
        <rect y="416" width="302" height="0.85" />
        <rect y="426" width="360" height="0.9" />
        <rect y="436" width="418" height="0.75" />
        <rect y="446" width="286" height="0.95" />
        <rect y="456" width="394" height="0.8" />
        <rect y="466" width="344" height="0.85" />
      </g>
    </pattern>
  </defs>
  <rect width="480" height="480" fill="url(#scan)" filter="url(#jitter)" />
</svg>
